<svg width="40" height="48" viewBox="0 0 40 48" fill="none" xmlns="http://www.w3.org/2000/svg">
<path fill-rule="evenodd" clip-rule="evenodd" d="M21.6572 47.6142L21.7 47.6185C28.3178 48.2118 34.5846 46.2164 39.4889 42.4608L37.4666 37.4843C37.2804 37.6487 37.091 37.8097 36.8988 37.9673C32.9487 41.2056 27.7854 42.9671 22.3074 42.5167C19.7914 42.2859 17.3715 41.5359 15.1922 40.3456C11.0797 38.0994 7.82293 34.2806 6.39709 29.4223C4.97155 24.5648 5.64931 19.5903 7.89719 15.4743C9.00951 13.4385 10.5073 11.6118 12.3258 10.1137C12.3468 10.097 12.3674 10.08 12.3881 10.0627L12.3924 10.059L12.3964 10.0556L12.4003 10.0522L12.4063 10.0477L12.4111 10.0431C12.4905 9.97624 12.5701 9.90963 12.6503 9.84386C12.7005 9.80276 12.751 9.76194 12.8014 9.72141C16.0057 7.14499 19.9893 5.53122 24.2826 5.26448C24.2955 5.26361 24.3339 5.26043 24.3756 5.25697C24.4296 5.2525 24.4889 5.24758 24.5057 5.24662L22.4869 0.27832C22.4747 0.279842 22.4307 0.284333 22.3859 0.288896C22.339 0.293684 22.2913 0.298551 22.2788 0.300147C17.4653 0.922921 13.0211 2.90463 9.39134 5.88045L9.38595 5.88498L9.33748 5.92495C6.88579 7.8854 4.87233 10.3073 3.39066 13.0201C0.512634 18.2894 -0.355903 24.6563 1.46791 30.8708C3.29145 37.0838 7.46491 41.9721 12.7376 44.8521C15.4694 46.3443 18.4963 47.2965 21.6439 47.6128L21.6473 47.6131L21.6507 47.6134L21.6538 47.6139L21.6572 47.6142ZM20.8334 11.9658H27.0935L35.4438 32.5156H30.0872L23.9635 16.6441L17.8398 32.5156H12.4831L20.8334 11.9658Z" fill="#BA3E80"/>
</svg>
