<?xml version="1.0" encoding="utf-8"?>
<!-- Generator: Adobe Illustrator 19.0.0, SVG Export Plug-In . SVG Version: 6.00 Build 0)  -->
<svg version="1.1" id="Layer_1" xmlns="http://www.w3.org/2000/svg" xmlns:xlink="http://www.w3.org/1999/xlink" x="0px" y="0px"
	 viewBox="-94 96 60 60" style="enable-background:new -94 96 60 60;" xml:space="preserve">
<style type="text/css">
	.st0{fill:#F20914;}
</style>
<path class="st0" d="M-66.3,149.6L-66.3,149.6c6.7,0.6,12.9-1.4,17.8-5.2l-2-5c-0.2,0.2-0.4,0.3-0.6,0.5c-4,3.2-9.1,5-14.6,4.5
	c-2.5-0.2-4.9-1-7.1-2.2c-4.1-2.2-7.4-6.1-8.8-10.9c-1.4-4.9-0.7-9.8,1.5-13.9c1.1-2,2.6-3.9,4.4-5.4c0,0,0,0,0.1-0.1l0,0l0,0l0,0
	l0,0l0,0c0.1-0.1,0.2-0.1,0.2-0.2c0.1,0,0.1-0.1,0.2-0.1c3.2-2.6,7.2-4.2,11.5-4.5c0,0,0.1,0,0.1,0c0.1,0,0.1,0,0.1,0l-2-5
	c0,0-0.1,0-0.1,0c0,0-0.1,0-0.1,0c-4.8,0.6-9.3,2.6-12.9,5.6l0,0l0,0c-2.5,2-4.5,4.4-5.9,7.1c-2.9,5.3-3.7,11.6-1.9,17.9
	c1.8,6.2,6,11.1,11.3,14C-72.5,148.3-69.5,149.3-66.3,149.6L-66.3,149.6L-66.3,149.6L-66.3,149.6L-66.3,149.6z M-67.2,114h6.3
	l8.4,20.5h-5.4l-6.1-15.9l-6.1,15.9h-5.4L-67.2,114z"/>
</svg>
